HIERARCHY
ROOT root
{
	OFFSET 0.000000 0.000000 0.000000
	CHANNELS 6 Xposition Yposition Zposition Zrotation Yrotation Xrotation
	JOINT lhip
	{
		OFFSET 0.058581 -0.082280 -0.017664
		CHANNELS 3 Zrotation Yrotation Xrotation
		JOINT lknee
		{
			OFFSET 0.043451 -0.386469 0.008037
			CHANNELS 3 Zrotation Yrotation Xrotation
			JOINT lankle
			{
				OFFSET -0.014790 -0.426874 -0.037428
				CHANNELS 3 Zrotation Yrotation Xrotation
				JOINT ltoe
				{
					OFFSET 0.041054 -0.060286 0.122042
					CHANNELS 3 Zrotation Yrotation Xrotation
					End Site
					{
						OFFSET 0.000000 0.000000 0.000000
					}
				}
			}
		}
	}
	JOINT rhip
	{
		OFFSET -0.060310 -0.090513 -0.013543
		CHANNELS 3 Zrotation Yrotation Xrotation
		JOINT rknee
		{
			OFFSET -0.043257 -0.383688 -0.004843
			CHANNELS 3 Zrotation Yrotation Xrotation
			JOINT rankle
			{
				OFFSET 0.019056 -0.420046 -0.034562
				CHANNELS 3 Zrotation Yrotation Xrotation
				JOINT rtoe
				{
					OFFSET -0.034840 -0.062106 0.130323
					CHANNELS 3 Zrotation Yrotation Xrotation
					End Site
					{
						OFFSET 0.000000 0.000000 0.000000
					}
				}
			}
		}
	}
	JOINT lowerback
	{
		OFFSET 0.004439 0.124404 -0.038385
		CHANNELS 3 Zrotation Yrotation Xrotation
		JOINT upperback
		{
			OFFSET 0.004488 0.137956 0.026820
			CHANNELS 3 Zrotation Yrotation Xrotation
			JOINT chest
			{
				OFFSET -0.002265 0.056032 0.002855
				CHANNELS 3 Zrotation Yrotation Xrotation
				JOINT lowerneck
				{
					OFFSET -0.013390 0.211636 -0.033468
					CHANNELS 3 Zrotation Yrotation Xrotation
					JOINT upperneck
					{
						OFFSET 0.010113 0.088937 0.050410
						CHANNELS 3 Zrotation Yrotation Xrotation
						End Site
						{
							OFFSET 0.000000 0.000000 0.000000
						}
					}
				}
				JOINT lclavicle
				{
					OFFSET 0.071702 0.114000 -0.018898
					CHANNELS 3 Zrotation Yrotation Xrotation
					JOINT lshoulder
					{
						OFFSET 0.122921 0.045205 -0.019046
						CHANNELS 3 Zrotation Yrotation Xrotation
						JOINT lelbow
						{
							OFFSET 0.255332 -0.015649 -0.022946
							CHANNELS 3 Zrotation Yrotation Xrotation
							JOINT lwrist
							{
								OFFSET 0.265709 0.012698 -0.007375
								CHANNELS 3 Zrotation Yrotation Xrotation
								End Site
								{
									OFFSET 0.000000 0.000000 0.000000
								}
							}
						}
					}
				}
				JOINT rclavicle
				{
					OFFSET -0.082954 0.112472 -0.023707
					CHANNELS 3 Zrotation Yrotation Xrotation
					JOINT rshoulder
					{
						OFFSET -0.113228 0.046853 -0.008472
						CHANNELS 3 Zrotation Yrotation Xrotation
						JOINT relbow
						{
							OFFSET -0.260127 -0.014369 -0.031269
							CHANNELS 3 Zrotation Yrotation Xrotation
							JOINT rwrist
							{
								OFFSET -0.269108 0.006794 -0.006027
								CHANNELS 3 Zrotation Yrotation Xrotation
								End Site
								{
									OFFSET 0.000000 0.000000 0.000000
								}
							}
						}
					}
				}
			}
		}
	}
}
MOTION
Frames: 8
Frame Time: 0.033333
-0.478530 0.990597 0.967001 77.877991 -2.032494 81.085070 -1.806636 -0.587715 6.161630 -6.555024 -9.448284 18.762515 5.416007 20.519128 -28.342334 0.000000 -0.000000 0.000000 -3.244076 5.083598 -34.914886 3.330851 -4.365415 63.956269 5.914395 -19.300809 -7.978792 0.000000 -0.000000 0.000000 -4.231251 -11.723887 14.080295 -4.130133 -1.072857 -6.816714 -4.171818 -2.899038 5.917975 1.675020 -13.921958 14.565383 -3.330797 2.967414 29.117086 -24.846766 8.197521 3.233492 -46.530926 -0.838826 20.476031 -22.020150 -82.598099 37.782834 -1.871639 -7.450959 -36.920792 8.786117 -1.399282 -13.464836 -2.427251 15.539840 -10.746338 -46.993778 50.326560 -46.866748 17.722236 8.453631 -2.084612 
-0.474825 0.987860 0.965166 76.863973 -2.275292 80.980685 -2.090843 -0.561833 6.686397 -6.599678 -9.059166 18.635729 6.092466 21.127242 -28.272439 0.000000 -0.000000 0.000000 -3.459254 4.459369 -35.638079 3.243802 -6.090027 66.960561 5.590148 -19.711266 -6.956696 0.000000 -0.000000 0.000000 -4.755456 -12.010739 14.510372 -4.304357 -1.523111 -7.132033 -4.396524 -3.106074 5.649389 1.595946 -13.314531 13.422559 -3.484273 3.622727 29.243920 -25.124324 7.666284 2.610782 -46.085579 -0.624352 21.042117 -28.515975 -83.248565 43.599075 -1.705235 -7.399315 -37.885964 8.420835 -1.661003 -14.431855 -1.500724 16.124212 -10.004080 -57.403815 52.943424 -57.574071 19.297506 8.828860 -7.868115 
-0.469710 0.983909 0.964334 75.685490 -2.682027 81.118441 -2.796242 -0.649163 7.529426 -6.006028 -8.678608 17.635703 6.467180 21.829263 -27.870612 0.000000 -0.000000 0.000000 -4.134906 3.358730 -35.896861 2.716980 -7.725992 69.839982 5.260242 -20.588683 -5.853836 0.000000 -0.000000 0.000000 -5.039172 -11.889255 14.348546 -4.534348 -1.732748 -7.460818 -4.716112 -3.221941 5.528348 1.571633 -13.347762 12.579465 -3.570995 3.594918 29.089034 -25.244166 6.798763 2.253094 -45.821530 -0.799814 21.880400 -32.972445 -83.517051 47.393046 -1.119298 -7.507769 -39.140802 7.953592 -1.575849 -15.538877 -1.147450 17.575433 -9.367131 -68.136855 54.432450 -68.648994 19.839001 8.989061 -13.469728 
-0.464330 0.978147 0.964493 74.327469 -2.773208 81.540622 -2.966966 -0.315808 8.219819 -5.192394 -8.111825 16.423750 6.544029 21.856497 -27.250703 0.000000 -0.000000 0.000000 -4.470605 1.756689 -35.606308 2.180360 -9.203104 72.118842 4.759947 -21.040589 -4.707519 0.000000 -0.000000 0.000000 -4.733836 -11.843956 13.677964 -4.831231 -1.873774 -7.659057 -4.975053 -3.048343 5.316473 1.462733 -13.885935 11.812202 -3.691412 3.321920 28.680350 -25.295995 5.824924 1.711218 -45.624224 -0.937300 22.501273 -40.884859 -83.296824 54.863091 -1.540878 -7.739503 -39.310137 7.146519 -0.565125 -16.471365 -1.526328 20.104533 -9.464511 -76.851365 55.155294 -77.873537 19.238745 8.820110 -16.818748 
-0.458535 0.970910 0.965633 72.857304 -2.930905 82.062012 -2.989568 0.253680 9.023832 -4.511954 -7.576764 14.914903 6.523710 21.763554 -26.258869 0.000000 -0.000000 0.000000 -4.832751 -0.354337 -34.420830 1.884506 -10.493824 73.365300 4.185312 -20.939642 -3.115959 0.000000 -0.000000 0.000000 -4.253561 -11.495505 12.796921 -5.296578 -1.762537 -7.763762 -5.233542 -2.712154 4.968502 1.259858 -14.899892 11.079774 -3.490664 2.768068 28.290470 -25.123416 4.491299 1.273932 -45.454680 -1.087186 23.343013 -50.312450 -82.871173 64.228969 -0.991354 -7.367977 -39.635641 6.016273 1.084451 -17.064030 -2.497725 22.951426 -10.191465 -82.671727 55.710835 -84.678171 17.275599 8.323275 -19.961284 
-0.453818 0.961341 0.967183 71.000106 -2.907332 82.800687 -2.518406 0.773444 9.432078 -3.987057 -6.230563 13.855473 6.109772 21.032034 -25.215602 0.000000 -0.000000 0.000000 -4.668896 -2.464112 -32.611572 1.591646 -11.745503 73.170087 4.002281 -20.554251 -0.662396 0.000000 -0.000000 0.000000 -3.570087 -10.512107 11.478313 -5.694692 -1.348516 -7.392687 -5.454506 -2.263835 4.529785 1.062434 -16.363123 10.573570 -2.939375 2.079713 27.291644 -24.963495 2.772241 1.127625 -45.143462 -1.557715 24.356437 -57.705260 -82.350748 71.266615 0.065597 -7.408191 -39.842774 4.721881 3.176398 -17.384535 -4.032629 25.917393 -11.357809 -85.212919 56.176113 -88.990361 15.499504 7.992293 -23.262823 
-0.449011 0.949073 0.968511 68.526297 -2.957130 83.142619 -1.740469 1.659529 10.048017 -3.854720 -5.434722 13.808365 5.370797 19.970261 -24.032857 0.000000 -0.000000 0.000000 -3.711093 -3.937878 -29.326538 1.762491 -11.669080 70.627219 3.636479 -18.907009 2.548853 0.000000 -0.000000 0.000000 -2.995775 -9.201495 10.498067 -6.285883 -0.677182 -7.012268 -5.639898 -1.464798 4.139467 0.876121 -17.642040 10.366013 -1.987833 1.346373 26.069494 -24.540727 0.856288 0.877452 -44.762374 -1.732215 25.372000 -65.949919 -81.861207 79.219258 1.357064 -7.339564 -40.586449 3.101644 5.738147 -17.506696 -4.858831 28.840231 -12.716178 -84.869850 56.827057 -90.396261 13.305337 7.664081 -25.924246 
-0.445862 0.934793 0.969225 65.310733 -3.381067 83.886039 -0.955692 1.651393 8.443743 -5.049808 -3.434252 17.363250 3.958168 19.005118 -23.071342 0.000000 -0.000000 0.000000 -2.481778 -4.385264 -25.439166 2.706459 -10.327830 65.245862 4.845595 -15.643048 -0.620611 0.000000 -0.000000 0.000000 -3.076214 -7.094319 9.000339 -6.632730 -0.037504 -6.234973 -5.882452 -0.606010 3.637354 1.602940 -17.779939 9.783706 -1.391696 -0.305241 25.127769 -24.203762 -0.796623 0.363601 -44.198510 -1.848745 26.758573 -72.060669 -81.596913 84.356388 2.810091 -7.199115 -41.190633 2.036723 8.439320 -17.379402 -4.874782 32.255232 -13.845098 -82.043753 57.312263 -90.155360 10.049200 7.669072 -30.541186 
